<?xml version="1.0" standalone="no"?><svg xmlns="http://www.w3.org/2000/svg" viewBox="0 0 1440 320"><path fill="#1e31d8" fill-opacity="0.4" d="M0,0L30,0C60,0,120,0,180,21.3C240,43,300,85,360,96C420,107,480,85,540,90.7C600,96,660,128,720,144C780,160,840,160,900,133.3C960,107,1020,53,1080,42.7C1140,32,1200,64,1260,64C1320,64,1380,32,1410,16L1440,0L1440,0L1410,0C1380,0,1320,0,1260,0C1200,0,1140,0,1080,0C1020,0,960,0,900,0C840,0,780,0,720,0C660,0,600,0,540,0C480,0,420,0,360,0C300,0,240,0,180,0C120,0,60,0,30,0L0,0Z"></path></svg>