<?xml version="1.0" standalone="no"?><svg xmlns="http://www.w3.org/2000/svg" viewBox="0 0 1440 320"><path fill="#1e31d8" fill-opacity="0.4" d="M0,128L30,117.3C60,107,120,85,180,106.7C240,128,300,192,360,208C420,224,480,192,540,197.3C600,203,660,245,720,234.7C780,224,840,160,900,149.3C960,139,1020,181,1080,208C1140,235,1200,245,1260,229.3C1320,213,1380,171,1410,149.3L1440,128L1440,320L1410,320C1380,320,1320,320,1260,320C1200,320,1140,320,1080,320C1020,320,960,320,900,320C840,320,780,320,720,320C660,320,600,320,540,320C480,320,420,320,360,320C300,320,240,320,180,320C120,320,60,320,30,320L0,320Z"></path></svg>